<svg width="47" height="40" viewBox="0 0 47 40" fill="none" xmlns="http://www.w3.org/2000/svg">
    <path d="M16.712 20.117a2.256 2.256 0 0 1 1.524-.005c.242.086.46.212.644.372.183.159.327.347.423.555a1.45 1.45 0 0 1-.037 1.296 1.705 1.705 0 0 1-.454.537 2.043 2.043 0 0 1-.664.345c-1.31.439-2.433 1.203-3.225 2.193-.791.99-1.215 2.16-1.215 3.357v2.9c0 .442.207.866.574 1.178.367.313.865.489 1.384.489h15.667c.52 0 1.018-.176 1.385-.489.367-.312.573-.736.573-1.178v-2.745c0-1.236-.44-2.443-1.264-3.46-.824-1.018-1.992-1.799-3.35-2.238a2.054 2.054 0 0 1-.67-.338 1.715 1.715 0 0 1-.462-.533 1.446 1.446 0 0 1-.055-1.298c.093-.208.235-.398.416-.56.182-.16.4-.289.64-.377a2.26 2.26 0 0 1 1.526-.008c2.099.68 3.905 1.887 5.18 3.461 1.273 1.574 1.956 3.44 1.956 5.35v2.746c0 1.326-.619 2.598-1.72 3.535-1.102.938-2.597 1.465-4.155 1.465H15.667c-1.559 0-3.053-.527-4.155-1.465-1.101-.937-1.72-2.21-1.72-3.535v-2.9c0-1.867.66-3.69 1.894-5.232 1.235-1.543 2.986-2.734 5.026-3.418zM23.5 3.333c2.077 0 4.07.703 5.539 1.953 1.469 1.25 2.294 2.946 2.294 4.714v3.334c0 1.768-.825 3.463-2.294 4.713-1.47 1.25-3.462 1.953-5.54 1.953-2.077 0-4.07-.702-5.538-1.953-1.47-1.25-2.294-2.945-2.294-4.713V10c0-1.768.825-3.464 2.294-4.714 1.469-1.25 3.461-1.952 5.539-1.952zm0 3.334c-1.039 0-2.035.351-2.77.976-.734.625-1.147 1.473-1.147 2.357v3.334c0 .884.413 1.731 1.147 2.357.735.625 1.731.976 2.77.976s2.035-.351 2.77-.977c.734-.625 1.146-1.472 1.146-2.356V10c0-.884-.412-1.732-1.147-2.357-.734-.625-1.73-.976-2.77-.976z" fill="#21272A"/>
</svg>
