<svg width="41" height="34" viewBox="0 0 41 34" fill="none" xmlns="http://www.w3.org/2000/svg">
    <g clip-path="url(#433npyweza)">
        <path d="M13.668 33.06c-4.65 1.923-9.493.834-12.056-2.708-1.06-1.462-1.59-3.009-1.59-4.594 0-1.603.54-3.243 1.619-4.882.637-.968 1.462-1.826 2.257-2.655.254-.265.508-.53.754-.798.115-.122.246-.23.39-.323-.22-.23-.435-.452-.646-.667-.796-.817-1.547-1.59-2.189-2.43C-.163 10.896-.595 7.81.917 4.823 1.87 2.941 3.54 1.454 5.604.651a9.652 9.652 0 0 1 6.482-.174c2.87.932 5.664 2.146 8.365 3.321l.087.038c3.838 1.669 7.71 3.413 11.453 5.1l3.332 1.498c1.433.642 3.042 1.502 4.114 3.014 1.102 1.556 1.455 3.37.995 5.109-.474 1.77-1.747 3.28-3.582 4.249-2.733 1.442-5.608 2.721-8.089 3.808a789.637 789.637 0 0 1-15.092 6.447zm18.899-11.107 2.365-1.049c1.765-.778 2.826-2.205 2.843-3.817-.008-1.65-1.04-3.119-2.83-3.95-.539-.25-1.073-.507-1.605-.764-.89-.427-1.81-.87-2.74-1.274A3555.959 3555.959 0 0 0 12.017 3.11c-1.753-.748-3.598-.775-5.334-.081-1.653.661-2.887 1.84-3.474 3.32a5.084 5.084 0 0 0-.363 1.889c0 .913.243 1.835.73 2.706.618 1.106 1.499 2.073 2.35 3.01.371.41.743.817 1.09 1.235.91 1.094 1.947.491 2.351.257 1.858-1.081 3.78-2.2 5.77-3.07 1.925-.838 3.864-1.016 5.76-.525 3.01.78 4.731 3.69 3.92 6.62-.76 2.753-3.804 4.425-7.079 3.89-2.247-.366-4.422-1.247-7.055-2.853a11.311 11.311 0 0 1-.518-.352c-.644-.453-1.374-.966-2.16-.852-.833.12-1.432.805-1.96 1.408-.117.134-.235.268-.349.39-1.443 1.52-2.783 3.248-2.818 5.576v.05l.006.047c.02.147.039.295.055.444.04.36.081.735.197 1.113a5.665 5.665 0 0 0 1.278 2.2 6.194 6.194 0 0 0 2.157 1.491c1.686.7 3.586.673 5.348-.072 6.924-2.923 13.9-6.01 20.647-8.998zm-14.862-2.196c1.841.346 2.964.102 3.756-.813.503-.587.757-1.213.757-1.867 0-.484-.138-.983-.414-1.499-.556-1.03-1.519-1.474-3.035-1.393-2.666.144-4.839 1.412-7.072 2.843 1.807 1.196 3.764 2.308 6.01 2.73h-.002z" fill="#21272A"/>
    </g>
    <defs>
        <clipPath id="433npyweza">
            <path fill="#fff" d="M0 0h41v34H0z"/>
        </clipPath>
    </defs>
</svg>
