<svg width="42" height="39" viewBox="0 0 42 39" fill="none" xmlns="http://www.w3.org/2000/svg">
    <path fill-rule="evenodd" clip-rule="evenodd" d="M19.905 0c2.693-.003 5.358.53 7.834 1.568a19.863 19.863 0 0 1 6.567 4.47l.027.027 2.047 2.332a1.479 1.479 0 0 1-.163 2.115 1.554 1.554 0 0 1-2.16-.16L32.063 8.08a16.801 16.801 0 0 0-5.528-3.753A17.09 17.09 0 0 0 19.908 3h-.002C10.607 3 3.063 10.39 3.063 19.5S10.607 36 19.905 36m0-36C8.915 0 0 8.734 0 19.5S8.916 39 19.906 39c4.117 0 8.133-1.25 11.495-3.578A19.556 19.556 0 0 0 38.679 26a1.492 1.492 0 0 0-.933-1.915c-.797-.276-1.672.133-1.954.914a16.55 16.55 0 0 1-6.16 7.972A17.094 17.094 0 0 1 19.907 36" fill="#21272A"/>
    <path d="M41.344 4.633V15c0 .398-.162.78-.449 1.06-.287.282-.676.44-1.082.44H29.23c-1.365 0-2.048-1.615-1.084-2.56L38.73 3.572c.965-.947 2.614-.276 2.614 1.061z" fill="#21272A"/>
</svg>
