<svg width="49" height="49" viewBox="0 0 49 49" fill="none" xmlns="http://www.w3.org/2000/svg">
    <path fill-rule="evenodd" clip-rule="evenodd" d="M41.861 7.036a24.319 24.319 0 0 0-7.918-5.221A24.551 24.551 0 0 0 24.603 0C11.156 0 .21 10.762.205 23.993a23.625 23.625 0 0 0 3.257 11.996L0 48.417l12.934-3.336A24.693 24.693 0 0 0 24.593 48h.01C38.048 48 48.993 37.236 49 24.007a23.55 23.55 0 0 0-1.844-9.194 23.781 23.781 0 0 0-5.295-7.777zM24.603 43.95h-.009a20.503 20.503 0 0 1-10.32-2.78l-.741-.432-7.675 1.98 2.049-7.36-.483-.756a19.654 19.654 0 0 1-3.1-10.61c0-10.994 9.1-19.94 20.286-19.94a20.36 20.36 0 0 1 14.318 5.83 19.876 19.876 0 0 1 5.953 14.126C44.876 35.003 35.78 43.95 24.603 43.95zm11.122-14.935c-.61-.3-3.61-1.75-4.165-1.95-.555-.2-.966-.301-1.371.3-.406.6-1.576 1.945-1.93 2.35-.356.405-.712.45-1.321.15-.61-.301-2.575-.933-4.903-2.976-1.813-1.59-3.035-3.552-3.391-4.152-.355-.6-.038-.925.267-1.224.274-.269.61-.7.914-1.05.305-.35.407-.601.61-1 .202-.4.101-.75-.05-1.05-.153-.3-1.372-3.251-1.88-4.452-.495-1.17-.997-1.01-1.371-1.029a25.048 25.048 0 0 0-1.17-.021 2.266 2.266 0 0 0-1.625.75c-.559.6-2.134 2.053-2.134 5.001 0 2.949 2.188 5.802 2.49 6.202.301.4 4.298 6.455 10.413 9.052 1.136.48 2.296.902 3.476 1.262 1.46.456 2.79.393 3.84.238 1.17-.172 3.608-1.45 4.115-2.85.506-1.402.507-2.601.355-2.85-.152-.25-.559-.402-1.169-.701z" fill="#21272A"/>
</svg>
