<svg width="46" height="33" viewBox="0 0 46 33" fill="none" xmlns="http://www.w3.org/2000/svg">
    <path d="M41.33 28.5H4.607a4.662 4.662 0 0 1-3.256-1.323A4.473 4.473 0 0 1 0 23.986V4.513a4.473 4.473 0 0 1 1.351-3.19A4.662 4.662 0 0 1 4.607 0H41.33a4.662 4.662 0 0 1 3.256 1.324 4.472 4.472 0 0 1 1.352 3.19v19.473a4.472 4.472 0 0 1-1.352 3.19A4.662 4.662 0 0 1 41.33 28.5z" fill="#21272A"/>
    <path fill-rule="evenodd" clip-rule="evenodd" d="M9.188 31.5c0-.828.685-1.5 1.53-1.5h24.5c.846 0 1.532.672 1.532 1.5s-.686 1.5-1.531 1.5h-24.5c-.846 0-1.531-.672-1.531-1.5z" fill="#21272A"/>
</svg>
